<svg xmlns="http://www.w3.org/2000/svg" width="87" height="21" fill="none"><path fill="url(#a)" fill-opacity=".3" d="M13.708 2.327c3.448-3.446 7.412.517 3.964 3.963-1.63 1.629-3.812 2.313-6.405 2.471-.03.404-.05.817-.062 1.239-.011.406-.007.818.015 1.233 2.614.149 4.813.838 6.452 2.477 3.448 3.447-.516 7.409-3.964 3.963-1.672-1.671-2.365-4.094-2.488-6.44a20.748 20.748 0 0 0-2.454.009c-.155 2.601-.84 4.79-2.474 6.424-3.448 3.446-7.412-.517-3.964-3.963 1.683-1.682 4.092-2.307 6.438-2.461a20.935 20.935 0 0 0 0-2.477C6.16 8.613 3.964 7.93 2.329 6.297c-3.448-3.446.516-7.409 3.964-3.963 1.635 1.635 2.32 3.826 2.475 6.43a20.988 20.988 0 0 0 2.5-.003c.194-2.605.806-4.8 2.441-6.434z"/><path stroke="url(#b)" stroke-linejoin="round" d="M11.267 8.761c.194-2.605.806-4.8 2.441-6.434 3.448-3.446 7.412.517 3.964 3.963-1.63 1.629-3.812 2.313-6.405 2.471zm0 0c-.03.404-.05.817-.062 1.239-.011.406-.007.818.015 1.233m.047-2.472a21.076 21.076 0 0 1-2.5.003m2.453 2.47c.123 2.345.816 4.768 2.488 6.439 3.448 3.446 7.412-.516 3.964-3.963-1.64-1.639-3.838-2.328-6.452-2.477zm0 0a20.748 20.748 0 0 0-2.454.008m0 0c-2.346.154-4.755.779-6.438 2.461-3.448 3.446.516 7.409 3.964 3.963 1.634-1.633 2.32-3.822 2.474-6.424zm0 0a20.935 20.935 0 0 0 0-2.477m0 0C6.16 8.613 3.964 7.93 2.329 6.297c-3.448-3.446.516-7.409 3.964-3.963 1.635 1.635 2.32 3.826 2.475 6.43z"/><path fill="url(#c)" d="M30.499 17V3.904h4.43c1.025 0 1.863.185 2.513.554.657.37 1.143.867 1.46 1.494.316.627.474 1.327.474 2.1a4.63 4.63 0 0 1-.475 2.101c-.31.633-.794 1.137-1.45 1.512-.65.37-1.485.554-2.505.554h-3.164v-1.406h3.112c.703 0 1.268-.12 1.696-.36.428-.241.738-.57.931-.985a3.35 3.35 0 0 0 .29-1.415c0-.528-.096-.996-.29-1.407a2.103 2.103 0 0 0-.94-.975c-.428-.24-.996-.36-1.705-.36h-2.795V17H30.5zm13.06.14c-.615 0-1.165-.105-1.652-.316a2.664 2.664 0 0 1-1.16-.94c-.281-.422-.422-.94-.422-1.556 0-.533.103-.967.308-1.3a2.23 2.23 0 0 1 .835-.783c.351-.193.747-.34 1.186-.44.446-.099.9-.178 1.363-.237a83.802 83.802 0 0 1 1.397-.184c.34-.041.58-.109.72-.202.147-.094.22-.258.22-.492v-.088c0-.34-.081-.64-.246-.897a1.578 1.578 0 0 0-.703-.615c-.304-.152-.674-.229-1.107-.229-.428 0-.809.074-1.143.22a2 2 0 0 0-.79.58 1.506 1.506 0 0 0-.326.835h-1.52a2.74 2.74 0 0 1 .527-1.512c.322-.445.762-.796 1.318-1.054.557-.258 1.201-.387 1.934-.387a4.53 4.53 0 0 1 1.459.22c.44.146.811.354 1.116.624.31.27.548.592.712.967.164.375.246.79.246 1.248V17h-1.477v-1.318h-.035a2.855 2.855 0 0 1-.492.676c-.217.223-.51.41-.879.563-.363.146-.826.22-1.388.22zm.212-1.335c.609 0 1.104-.109 1.485-.325.38-.223.659-.51.835-.862a2.5 2.5 0 0 0 .264-1.134v-1.16c-.06.053-.167.103-.326.15a6.28 6.28 0 0 1-.571.14 31.599 31.599 0 0 1-1.512.237 4.794 4.794 0 0 0-1.02.247 1.916 1.916 0 0 0-.773.483c-.199.205-.298.484-.298.835 0 .434.17.774.51 1.02.345.246.814.369 1.405.369zm13.834-8.086L54.019 17h-1.512L48.92 7.719h1.617l2.742 7.312h.027l2.707-7.312h1.59zm2.53 12.955h-.913v-1.406h.914c.328 0 .594-.115.8-.343.205-.223.363-.478.474-.765l.448-1.16-3.585-9.281h1.617l2.742 7.312h.035l2.707-7.312h1.582l-4.245 11.004a3.28 3.28 0 0 1-.624 1.037 2.737 2.737 0 0 1-.888.676 2.454 2.454 0 0 1-1.063.238zm11.743-3.463c-.856 0-1.609-.205-2.259-.615a4.258 4.258 0 0 1-1.512-1.714c-.357-.727-.536-1.562-.536-2.505 0-.95.179-1.79.536-2.523.364-.732.868-1.306 1.512-1.722.65-.416 1.403-.624 2.259-.624.861 0 1.614.208 2.259.624.644.416 1.145.99 1.503 1.722.363.733.545 1.574.545 2.523 0 .943-.182 1.778-.545 2.505a4.196 4.196 0 0 1-1.503 1.714c-.645.41-1.398.615-2.26.615zm0-1.354c.586 0 1.087-.143 1.503-.43.416-.287.735-.692.958-1.213.222-.527.334-1.14.334-1.837 0-.709-.112-1.324-.334-1.846-.223-.527-.542-.937-.958-1.23-.416-.293-.917-.44-1.503-.44-.58 0-1.081.147-1.503.44-.416.287-.735.694-.958 1.222-.223.527-.334 1.145-.334 1.854 0 .703.111 1.315.334 1.837.223.521.542.926.958 1.213.416.287.917.43 1.503.43zm7.54-4.289V17h-1.493V7.719h1.459v1.494h.035c.205-.451.533-.84.984-1.169.451-.334 1.043-.501 1.776-.501.627 0 1.207.138 1.74.413.533.27.96.677 1.283 1.222.328.545.492 1.23.492 2.056V17H84.2v-5.66c0-.803-.21-1.406-.633-1.81-.416-.41-.972-.616-1.67-.616-.45 0-.864.09-1.239.273a2.097 2.097 0 0 0-.905.86c-.223.388-.334.894-.334 1.521z"/><defs><linearGradient id="a" x1="10" x2="10" y1="1" y2="19" gradientUnits="userSpaceOnUse"><stop stop-color="#fff" stop-opacity="0"/><stop offset="1" stop-color="#fff"/></linearGradient><linearGradient id="b" x1="10" x2="10" y1="1" y2="19" gradientUnits="userSpaceOnUse"><stop stop-color="#fff" stop-opacity=".8"/><stop offset="1" stop-color="#fff"/></linearGradient><linearGradient id="c" x1="58" x2="58" y1="0" y2="15" gradientUnits="userSpaceOnUse"><stop stop-color="#fff" stop-opacity=".7"/><stop offset="1" stop-color="#fff"/></linearGradient></defs></svg>