<svg xmlns="http://www.w3.org/2000/svg" width="168" height="64" fill="none"><path fill="#CECEFB" fill-opacity=".75" d="M71.99 39.43c-1.45 0-2.716-.329-3.8-.988-1.084-.659-1.926-1.574-2.526-2.746-.6-1.186-.9-2.563-.9-4.13 0-1.581.307-2.973.922-4.173.63-1.216 1.516-2.16 2.658-2.834 1.157-.689 2.526-1.033 4.108-1.033 1.801 0 3.295.432 4.481 1.296 1.186.864 1.955 2.058 2.307 3.581h-3.142a3.044 3.044 0 0 0-1.274-1.67c-.615-.41-1.406-.614-2.372-.614-1.538 0-2.724.49-3.559 1.471-.835.967-1.252 2.3-1.252 3.998 0 1.7.41 3.017 1.23 3.954.835.923 1.963 1.384 3.383 1.384 1.391 0 2.438-.373 3.141-1.12.718-.761 1.15-1.757 1.296-2.987h-3.888v-2.11h6.722v8.458h-2.592l-.22-2.02a5.155 5.155 0 0 1-1.867 1.69c-.747.396-1.699.594-2.856.594zm9.104-.263V23.351h2.812v15.816h-2.812zm9.816.263c-1.055 0-2.007-.241-2.856-.724a5.452 5.452 0 0 1-2-2c-.483-.863-.724-1.86-.724-2.987s.249-2.116.746-2.965a5.404 5.404 0 0 1 2-2.021c.849-.484 1.8-.725 2.855-.725 1.04 0 1.977.241 2.812.725a5.2 5.2 0 0 1 2 2.02c.497.85.746 1.839.746 2.966 0 1.128-.249 2.124-.747 2.988a5.242 5.242 0 0 1-1.999 1.999c-.85.483-1.794.725-2.834.725zm0-2.438c.731 0 1.369-.27 1.91-.813.542-.556.813-1.376.813-2.46s-.27-1.896-.813-2.438c-.541-.557-1.171-.835-1.889-.835-.747 0-1.391.278-1.933.835-.527.542-.79 1.354-.79 2.438s.263 1.904.79 2.46c.542.542 1.179.813 1.911.813zm11.498 2.438c-.967 0-1.816-.153-2.548-.46-.733-.323-1.318-.762-1.758-1.319a3.783 3.783 0 0 1-.79-1.933h2.833c.088.425.323.791.703 1.099.396.292.901.439 1.516.439s1.062-.125 1.34-.373c.293-.25.439-.535.439-.857 0-.469-.205-.784-.615-.945-.41-.176-.981-.344-1.713-.505a18.614 18.614 0 0 1-1.428-.374 7.332 7.332 0 0 1-1.34-.549 3.108 3.108 0 0 1-.967-.878c-.249-.367-.373-.813-.373-1.34 0-.967.38-1.78 1.142-2.439.776-.659 1.86-.988 3.251-.988 1.289 0 2.314.3 3.076.9.776.6 1.237 1.428 1.384 2.483h-2.658c-.161-.806-.769-1.209-1.824-1.209-.527 0-.937.103-1.23.308-.278.205-.417.461-.417.769 0 .322.212.578.637.769.425.19.988.366 1.691.527.762.176 1.458.373 2.087.593.645.205 1.157.52 1.538.945.381.41.571 1.003.571 1.779a3.058 3.058 0 0 1-.527 1.823c-.366.542-.893.967-1.582 1.274-.688.308-1.501.462-2.438.462zm10.443 0c-.967 0-1.816-.153-2.548-.46-.732-.323-1.318-.762-1.758-1.319a3.779 3.779 0 0 1-.79-1.933h2.833c.088.425.323.791.703 1.099.396.292.901.439 1.516.439s1.062-.125 1.34-.373c.293-.25.439-.535.439-.857 0-.469-.205-.784-.615-.945-.41-.176-.981-.344-1.713-.505a18.614 18.614 0 0 1-1.428-.374 7.341 7.341 0 0 1-1.34-.549 3.114 3.114 0 0 1-.967-.878c-.248-.367-.373-.813-.373-1.34 0-.967.381-1.78 1.142-2.439.777-.659 1.86-.988 3.251-.988 1.289 0 2.314.3 3.076.9.776.6 1.237 1.428 1.384 2.483h-2.658c-.161-.806-.769-1.209-1.823-1.209-.528 0-.938.103-1.231.308-.278.205-.417.461-.417.769 0 .322.212.578.637.769.425.19.989.366 1.692.527.761.176 1.457.373 2.086.593.645.205 1.157.52 1.538.945.381.41.571 1.003.571 1.779a3.058 3.058 0 0 1-.527 1.823c-.366.542-.893.967-1.582 1.274-.688.308-1.501.462-2.438.462zm6.723 4.57 2.526-5.558h-.659l-4.24-10.17h3.054l3.053 7.666 3.185-7.667h2.988L122.561 44h-2.987zm-75.508-6.593L55.15 26.324 53.327 24.5 42.244 35.584l1.822 1.823zm4.382-11.083-4.382 4.382-1.822-1.823 4.381-4.382 1.823 1.823zm2.32 11.083 4.381-4.382-1.822-1.822-4.382 4.381 1.823 1.823z"/><path fill="#CECEFB" fill-opacity=".75" fill-rule="evenodd" d="M38 41.65V20h21.65v21.65H38zm2.578-19.072h16.495v16.495H40.578V22.578z" clip-rule="evenodd"/></svg>