<svg xmlns="http://www.w3.org/2000/svg" width="168" height="64" fill="none"><path fill="#CECEFB" fill-opacity=".75" d="m22 36.35 8.791-3.913 5.06 2.935L36.875 45l-6.236-.052.92-6.693-1.073-.617-5.265 4.118L22 36.35zm14.414-1.39 7.77 5.715 3.066-5.509-6.236-2.523v-1.235l6.236-2.575-3.067-5.457-7.769 5.715v5.87zm-.562-6.332L36.874 19l-6.236.103.92 6.693-1.073.618-5.316-4.119L22 27.649l8.791 3.913 5.06-2.934zm32.202 2.218v9.02h3.356V28.37h-4.887v2.475h1.531zm-.104-4.09c.307.322.775.482 1.405.482.629 0 1.09-.16 1.384-.482.307-.336.461-.755.461-1.259 0-.517-.154-.937-.461-1.258-.294-.336-.755-.504-1.384-.504-.63 0-1.098.168-1.406.504-.293.321-.44.74-.44 1.258 0 .504.147.923.44 1.259zM56.37 39.614c.952.434 2.12.65 3.503.65 1.3 0 2.42-.202 3.357-.608.937-.405 1.657-.972 2.16-1.699.517-.741.776-1.601.776-2.58 0-.95-.244-1.755-.734-2.412-.475-.671-1.14-1.196-1.993-1.573-.852-.392-1.839-.637-2.957-.735l-1.175-.104c-.699-.056-1.203-.245-1.51-.567a1.586 1.586 0 0 1-.462-1.132c0-.336.084-.644.252-.923.168-.294.42-.525.755-.693.35-.167.776-.251 1.28-.251.531 0 .972.098 1.321.293.077.042.15.086.219.133l.017.012.075.054c.212.163.382.355.507.577.182.308.273.65.273 1.028h3.356c0-1.007-.23-1.88-.692-2.622-.461-.755-1.125-1.335-1.993-1.74-.853-.42-1.88-.63-3.083-.63-1.147 0-2.14.196-2.979.587-.839.378-1.496.923-1.971 1.636-.462.714-.693 1.56-.693 2.539 0 1.356.455 2.447 1.364 3.272.909.825 2.125 1.3 3.65 1.426l1.153.105c.937.084 1.615.273 2.035.566.42.28.63.665.63 1.154a1.742 1.742 0 0 1-.335 1.049c-.225.294-.554.524-.987.692-.434.168-.972.252-1.616.252-.713 0-1.293-.098-1.74-.294-.448-.21-.784-.482-1.007-.818a2.02 2.02 0 0 1-.315-1.09h-3.335c0 .992.244 1.873.734 2.642.49.755 1.21 1.357 2.16 1.804zm22.528.399c-1.16 0-2.097-.14-2.81-.42a2.956 2.956 0 0 1-1.574-1.447c-.321-.685-.482-1.608-.482-2.769v-4.552H72.29v-2.454h1.74v-3.104h3.126v3.104h3.356v2.454h-3.356v4.678c0 .545.14.965.42 1.258.293.28.706.42 1.237.42h1.7v2.832h-1.616z"/><path fill="#CECEFB" fill-opacity=".75" fill-rule="evenodd" d="M84.554 39.761c.755.336 1.622.503 2.601.503.965 0 1.818-.167 2.56-.503a4.998 4.998 0 0 0 1.845-1.405c.49-.602.819-1.287.986-2.056h-3.083c-.14.35-.406.643-.797.88-.392.239-.896.358-1.51.358-.382 0-.723-.045-1.022-.136a2.282 2.282 0 0 1-.615-.284 2.425 2.425 0 0 1-.923-1.175 4.03 4.03 0 0 1-.14-.45A4.775 4.775 0 0 1 84.36 35h8.396v-1.132c0-1.049-.224-2.014-.671-2.895a5.378 5.378 0 0 0-1.951-2.16c-.84-.56-1.874-.84-3.105-.84-.937 0-1.776.168-2.517.504a5.16 5.16 0 0 0-1.825 1.321 6.117 6.117 0 0 0-1.132 1.91 6.451 6.451 0 0 0-.378 2.202v.42c0 .74.126 1.468.378 2.18a6.45 6.45 0 0 0 1.132 1.91 5.554 5.554 0 0 0 1.867 1.342zm-.136-6.836a3.883 3.883 0 0 1 .2-.652c.209-.518.517-.91.922-1.175.152-.1.316-.18.493-.242.296-.104.629-.157.996-.157.574 0 1.05.133 1.427.399.391.252.685.622.88 1.112a3.186 3.186 0 0 1 .11.32 4.04 4.04 0 0 1 .123.56h-5.184l.033-.165z" clip-rule="evenodd"/><path fill="#CECEFB" fill-opacity=".75" d="M94.14 39.866V28.37h2.665v2.895a5.625 5.625 0 0 1 .252-.882c.293-.782.734-1.37 1.32-1.761.588-.406 1.308-.608 2.162-.608h.146c.867 0 1.587.202 2.161.608.587.391 1.028.979 1.321 1.762l.023.059.02.054.041-.113c.308-.783.755-1.37 1.343-1.762.587-.406 1.307-.608 2.16-.608h.147c.867 0 1.594.202 2.182.608.601.391 1.055.979 1.363 1.762.308.783.462 1.762.462 2.936v6.545h-3.357v-6.733c0-.63-.167-1.14-.503-1.532-.322-.391-.783-.587-1.384-.587-.602 0-1.077.203-1.427.608-.349.392-.524.916-.524 1.574v6.67h-3.378v-6.733c0-.63-.167-1.14-.503-1.532-.321-.391-.776-.587-1.363-.587-.616 0-1.098.203-1.448.608-.35.392-.524.916-.524 1.574v6.67H94.14z"/><path fill="#CECEFB" fill-opacity=".75" fill-rule="evenodd" d="M120.873 37.651v2.215h2.663v-7.048c0-1.063-.209-1.93-.629-2.601-.419-.685-1.034-1.196-1.846-1.531-.797-.336-1.783-.504-2.957-.504a39.51 39.51 0 0 0-1.301.021c-.461.014-.909.035-1.342.063l-.331.023a52.917 52.917 0 0 0-.802.061v2.832a119.19 119.19 0 0 1 1.89-.106 59.485 59.485 0 0 1 2.326-.062c.615 0 1.063.147 1.343.44.279.294.419.735.419 1.322v.042h-2.076c-1.021 0-1.923.133-2.706.399-.783.251-1.392.65-1.825 1.195-.434.532-.65 1.217-.65 2.056 0 .769.174 1.433.524 1.993a3.43 3.43 0 0 0 1.447 1.258c.63.294 1.357.44 2.182.44.797 0 1.468-.146 2.014-.44a3.136 3.136 0 0 0 1.3-1.258 3.684 3.684 0 0 0 .33-.728l.027-.082zm-.567-2.043v-.923h-2.097c-.588 0-1.042.147-1.364.44-.307.28-.461.665-.461 1.154 0 .23.038.44.115.628.077.19.192.358.346.505.322.28.776.42 1.364.42a3.136 3.136 0 0 0 .572-.055c.154-.032.299-.076.435-.135.307-.14.559-.37.754-.692.196-.321.308-.769.336-1.342z" clip-rule="evenodd"/><path fill="#CECEFB" fill-opacity=".75" d="M125.545 39.866V28.37h2.664v3.794c.128-1.083.449-1.956.965-2.62.699-.88 1.706-1.32 3.02-1.32h.441v2.894h-.839c-.923 0-1.636.252-2.14.755-.503.49-.755 1.203-.755 2.14v5.852h-3.356zm11.346-5.37h1.112l3.628 5.37h3.776l-4.601-6.595 3.783-4.9h-3.524l-4.174 5.466v-9.284h-3.356v15.313h3.356v-5.37z"/></svg>