<svg xmlns="http://www.w3.org/2000/svg" width="168" height="64" fill="none"><path fill="#CECEFB" fill-opacity=".75" d="M81.94 34.276v7.807h2.537V33.77c0-1.052-.225-1.982-.676-2.79a4.858 4.858 0 0 0-1.86-1.889c-.77-.45-1.663-.676-2.678-.676-1.014 0-1.925.235-2.733.705a4.885 4.885 0 0 0-1.522 1.306V21.96H72.47v20.123h2.537v-7.807c0-.676.15-1.277.45-1.804a3.288 3.288 0 0 1 1.24-1.24c.527-.3 1.128-.45 1.805-.45 1.014 0 1.84.328 2.48.986.638.657.958 1.494.958 2.508zm6.986 7.356c.883.489 1.88.733 2.988.733 1.127 0 2.114-.244 2.959-.733a5.412 5.412 0 0 0 2.03-2.085c.488-.883.732-1.907.732-3.072v-7.78h-2.537v7.667c0 1.108-.281 1.982-.845 2.62-.564.62-1.343.931-2.34.931-.657 0-1.23-.141-1.718-.423a2.816 2.816 0 0 1-1.128-1.212c-.244-.545-.366-1.183-.366-1.916v-7.666h-2.537v7.779c0 1.164.245 2.188.733 3.072a5.41 5.41 0 0 0 2.03 2.085z"/><path fill="#CECEFB" fill-opacity=".75" fill-rule="evenodd" d="M105.826 42.365c-1.334 0-2.537-.3-3.608-.902a6.91 6.91 0 0 1-2.536-2.508c-.62-1.052-.93-2.246-.93-3.58 0-1.315.3-2.499.902-3.55a6.822 6.822 0 0 1 2.48-2.48c1.052-.621 2.226-.931 3.523-.931 1.24 0 2.33.282 3.269.845a5.807 5.807 0 0 1 2.227 2.34c.545.996.817 2.123.817 3.382 0 .188-.009.394-.028.62-.019.206-.057.45-.113.733h-10.484c.089.521.249 1 .479 1.437.376.695.911 1.24 1.606 1.635.695.375 1.494.563 2.396.563.751 0 1.437-.131 2.057-.394a4.262 4.262 0 0 0 1.635-1.184l1.635 1.663a6.217 6.217 0 0 1-2.368 1.72 7.429 7.429 0 0 1-2.959.59zm-4.03-9.47c-.211.4-.359.84-.446 1.325h8.148a4.373 4.373 0 0 0-.431-1.466 3.407 3.407 0 0 0-1.353-1.465c-.582-.357-1.287-.536-2.114-.536-.864 0-1.625.188-2.282.564a3.847 3.847 0 0 0-1.522 1.578z" clip-rule="evenodd"/><path fill="#CECEFB" fill-opacity=".75" d="M113.608 41.238a7.767 7.767 0 0 0 1.832.845 7.975 7.975 0 0 0 2.142.282c1.503 0 2.696-.366 3.58-1.1.901-.732 1.352-1.728 1.352-2.987 0-.826-.178-1.493-.535-2a3.733 3.733 0 0 0-1.325-1.213 8.072 8.072 0 0 0-1.719-.704c-.601-.188-1.184-.367-1.747-.536-.545-.169-.987-.376-1.325-.62-.338-.244-.507-.592-.507-1.042 0-.451.188-.8.563-1.043.395-.263.959-.395 1.691-.395.696 0 1.316.132 1.861.395a3.76 3.76 0 0 1 1.409 1.127l1.634-1.635a4.79 4.79 0 0 0-2.029-1.634c-.808-.376-1.738-.564-2.79-.564-.996 0-1.851.16-2.565.48-.695.319-1.24.779-1.634 1.38-.395.583-.592 1.278-.592 2.086 0 .808.169 1.456.507 1.944a3.83 3.83 0 0 0 1.353 1.156 10.56 10.56 0 0 0 1.719.704c.62.17 1.203.348 1.747.536.545.17.987.395 1.325.676.357.264.536.64.536 1.128 0 .488-.216.873-.649 1.155-.432.263-1.042.395-1.832.395-.789 0-1.503-.141-2.142-.423-.638-.3-1.202-.751-1.691-1.353l-1.634 1.635c.413.507.902.949 1.465 1.325zM120.14 24.2v.5h-.601v1.52h-.571V24.7h-.601v-.5h1.773zm2.344-.03v2.059h-.571v-1l-.418.47h-.171l-.418-.47v1h-.571V24.17h.201l.873.878.873-.878h.202zm-74.338 3.316a4.804 4.804 0 0 0 6.016 3.155c2.533-.79 8.532-4.913 7.742-7.446-.79-2.532-8.07-2.515-10.602-1.725a4.804 4.804 0 0 0-3.156 6.016zm-1.53 13.888a3.806 3.806 0 0 0 5.383 0c1.486-1.487 4.178-6.588 2.691-8.075-1.486-1.486-6.588 1.205-8.074 2.692a3.806 3.806 0 0 0 0 5.383zm14.224 1.461a4.804 4.804 0 0 0 5.883-3.397c.687-2.563.41-9.836-2.153-10.523-2.563-.687-6.44 5.474-7.126 8.037a4.804 4.804 0 0 0 3.396 5.883z"/></svg>