<svg xmlns="http://www.w3.org/2000/svg" width="24" height="24" fill="none"><path fill="#fff" d="M12 9.709a2.292 2.292 0 1 0 0 4.583 2.292 2.292 0 0 0 0-4.583zm0-1.528a3.82 3.82 0 1 1 0 7.638 3.82 3.82 0 0 1 0-7.638zm4.965-.191a.955.955 0 1 1-1.91 0 .955.955 0 0 1 1.91 0zM12 5.89c-1.89 0-2.198.004-3.078.043-.599.029-1 .109-1.373.254-.332.128-.57.282-.825.537-.24.231-.423.513-.538.825-.145.374-.225.775-.253 1.374-.04.843-.044 1.138-.044 3.077 0 1.89.005 2.199.044 3.078.028.598.109 1 .253 1.373.13.332.283.571.536.825.258.256.497.41.825.537.378.146.78.227 1.375.254.844.04 1.138.044 3.078.044 1.89 0 2.198-.005 3.078-.044.597-.028 1-.108 1.372-.253.331-.129.572-.282.825-.536.258-.258.411-.497.538-.825.145-.377.226-.78.254-1.375.04-.843.044-1.138.044-3.078 0-1.89-.005-2.198-.044-3.077-.029-.598-.109-1.001-.254-1.374a2.226 2.226 0 0 0-.537-.825 2.203 2.203 0 0 0-.825-.538c-.374-.145-.776-.225-1.373-.253-.844-.04-1.138-.044-3.078-.044zm0-1.529c2.075 0 2.334.008 3.149.046.813.038 1.367.166 1.854.355.505.194.93.457 1.354.881.389.382.689.844.88 1.354.19.486.318 1.04.356 1.854.036.815.046 1.074.046 3.15 0 2.075-.008 2.334-.046 3.148-.038.814-.166 1.367-.355 1.855a3.73 3.73 0 0 1-.88 1.353 3.756 3.756 0 0 1-1.355.881c-.486.189-1.04.317-1.854.355-.815.036-1.073.046-3.149.046s-2.334-.008-3.149-.046c-.813-.038-1.367-.166-1.855-.355a3.735 3.735 0 0 1-1.353-.88 3.746 3.746 0 0 1-.88-1.354c-.19-.487-.318-1.042-.356-1.855-.036-.814-.046-1.073-.046-3.149 0-2.075.008-2.334.046-3.149.038-.814.166-1.367.355-1.854.191-.51.492-.972.88-1.354a3.74 3.74 0 0 1 1.354-.88c.488-.19 1.04-.318 1.855-.356.815-.036 1.073-.046 3.149-.046z"/></svg>