<svg xmlns="http://www.w3.org/2000/svg" width="24" height="24" fill="none"><path fill="#BDBCC4" d="M5.889 10.472a.764.764 0 0 1 .764.764v5.347a.764.764 0 1 1-1.528 0v-5.347a.764.764 0 0 1 .764-.764zm2.291.764a.764.764 0 0 1 .764.764v4.583a.764.764 0 1 1-1.527 0V12a.764.764 0 0 1 .763-.764zm2.292-3.056a.764.764 0 0 1 .764.764v7.64a.764.764 0 0 1-1.528 0v-7.64a.764.764 0 0 1 .764-.764zm3.82-.763a4.584 4.584 0 0 1 4.58 4.411l.002.199a2.673 2.673 0 0 1-.234 5.316l-.147.004h-2.674a.763.763 0 0 1-.09-1.522l.09-.006h2.633l.106-.001a1.146 1.146 0 0 0 .204-2.26l-.103-.019-1.352-.192.04-1.365-.003-.135a3.056 3.056 0 0 0-2.9-2.899l-.152-.004c-.205 0-.406.02-.602.06l-.162.037v7.542a.764.764 0 0 1-.675.759l-.09.005a.764.764 0 0 1-.763-.764V8.03a4.562 4.562 0 0 1 2.292-.613zM3.597 12a.764.764 0 0 1 .764.764v3.055a.764.764 0 1 1-1.528 0v-3.055A.764.764 0 0 1 3.597 12z"/></svg>