<svg xmlns="http://www.w3.org/2000/svg" width="24" height="24" fill="none"><path fill="#BDBCC4" d="M14.77 14.001c-.846 1.237-2.085 1.821-3.534 1.821-1.76 0-3.266-1.354-3.05-3.15.24-1.992 1.787-2.85 4.36-3.165.46-.056.65-.072 1.64-.145l.106-.008V9.19c0-1.372-.816-2.308-1.91-2.308-1.098 0-1.864.57-2.334 1.93l-1.443-.499c.677-1.963 2.015-2.959 3.777-2.959 1.988 0 3.437 1.664 3.437 3.836 0 2.024.125 3.633.37 4.245.271.682.37.853.675 1.232l-1.192.956c-.4-.498-.575-.801-.902-1.621zm4.301 4.526c-.207.153-.567.062-.404-.336.203-.495.418-1.075.2-1.338-.16-.195-.356-.292-.784-.292-.352 0-.527.046-.76.061-.156.01-.224-.227-.07-.336.202-.145.427-.255.665-.327.878-.263 1.913-.118 2.04.064.278.404-.153 1.962-.887 2.505zm-.903-.828c-.198.192-.41.37-.634.531-1.62 1.235-3.72 1.88-5.544 1.88-2.936 0-5.561-1.37-7.553-3.664-.17-.175-.03-.432.17-.293C6.754 17.74 9.41 18.7 12.161 18.7c1.73 0 3.597-.41 5.374-1.293.124-.058.263-.138.384-.194.28-.16.527.234.25.487zM14.3 10.885c-.96.072-1.143.087-1.567.139-1.95.239-2.9.766-3.029 1.831-.096.797.619 1.44 1.533 1.44 1.558 0 2.687-.938 3.072-3.41H14.3z"/></svg>