<svg xmlns="http://www.w3.org/2000/svg" width="24" height="24" fill="none"><path fill="#BDBCC4" d="m8.374 16.96.553.324a6.11 6.11 0 1 0-2.21-2.21l.322.553-.499 1.834 1.834-.5zm-4.01 2.68 1.033-3.796a7.639 7.639 0 1 1 2.76 2.76l-3.793 1.035zm4.88-11.224c.101-.008.205-.008.307-.003l.124.012c.121.014.255.088.3.19.228.517.45 1.037.663 1.559.047.116.02.265-.071.41a3.33 3.33 0 0 1-.201.284c-.086.11-.272.314-.272.314s-.075.09-.046.202c.01.043.045.105.077.157l.046.073c.195.326.458.657.779.968.091.089.18.18.277.265.357.315.762.572 1.2.764l.003.001c.065.028.098.044.193.084.047.02.096.037.146.05a.268.268 0 0 0 .28-.099c.553-.67.603-.713.608-.713v.001a.37.37 0 0 1 .289-.097.397.397 0 0 1 .135.03c.405.186 1.07.476 1.07.476l.444.2c.075.035.143.12.145.202.003.05.008.133-.01.285a2.129 2.129 0 0 1-.144.56.883.883 0 0 1-.16.23 1.82 1.82 0 0 1-.252.22 2.81 2.81 0 0 1-.095.069 4.26 4.26 0 0 1-.293.168 1.522 1.522 0 0 1-.636.176c-.142.007-.283.018-.425.01l-.434-.066a7.218 7.218 0 0 1-2.933-1.563c-.173-.152-.333-.315-.496-.478-.68-.676-1.193-1.406-1.505-2.095a2.65 2.65 0 0 1-.253-1.08A2.085 2.085 0 0 1 8.535 8.9c.056-.072.108-.147.2-.233a.972.972 0 0 1 .224-.174.734.734 0 0 1 .283-.077l.001.001z"/></svg>