<svg xmlns="http://www.w3.org/2000/svg" width="256" height="176" fill="none"><rect width="16" height="16" fill="url(#a)" fill-opacity=".06" rx="4" transform="matrix(1 0 0 -1 96 96)"/><rect width="15" height="15" x=".5" y="-.5" stroke="url(#b)" stroke-opacity=".08" rx="3.5" transform="matrix(1 0 0 -1 96 95)"/><rect width="16" height="16" fill="#CECEFB" fill-opacity=".04" rx="4" transform="matrix(1 0 0 -1 128 80)"/><rect width="15" height="15" x=".5" y="-.5" stroke="#CECEFB" stroke-opacity=".06" rx="3.5" transform="matrix(1 0 0 -1 128 79)"/><rect width="15" height="15" x=".5" y="-.5" stroke="#CECEFB" stroke-opacity=".06" rx="3.5" transform="matrix(1 0 0 -1 144 95)"/><rect width="15" height="15" x=".5" y="-.5" stroke="#CECEFB" stroke-opacity=".06" rx="3.5" transform="matrix(1 0 0 -1 160 111)"/><rect width="16" height="16" fill="#CECEFB" fill-opacity=".04" rx="4" transform="matrix(1 0 0 -1 192 112)"/><rect width="15" height="15" x=".5" y="-.5" stroke="#CECEFB" stroke-opacity=".06" rx="3.5" transform="matrix(1 0 0 -1 192 111)"/><rect width="15" height="15" x=".5" y="-.5" stroke="#CECEFB" stroke-opacity=".06" rx="3.5" transform="matrix(1 0 0 -1 112 127)"/><rect width="16" height="16" fill="url(#c)" fill-opacity=".06" rx="4" transform="matrix(1 0 0 -1 128 144)"/><rect width="15" height="15" x=".5" y="-.5" stroke="url(#d)" stroke-opacity=".08" rx="3.5" transform="matrix(1 0 0 -1 128 143)"/><rect width="15" height="15" x=".5" y="-.5" stroke="#CECEFB" stroke-opacity=".06" rx="3.5" transform="matrix(1 0 0 -1 144 159)"/><rect width="15" height="15" x=".5" y="-.5" stroke="#CECEFB" stroke-opacity=".06" rx="3.5" transform="matrix(1 0 0 -1 128 175)"/><rect width="15" height="15" x=".5" y="-.5" stroke="#CECEFB" stroke-opacity=".06" rx="3.5" transform="matrix(1 0 0 -1 96 143)"/><rect width="15" height="15" x=".5" y="-.5" stroke="#CECEFB" stroke-opacity=".06" rx="3.5" transform="matrix(1 0 0 -1 112 159)"/><rect width="15" height="15" x=".5" y="-.5" stroke="#CECEFB" stroke-opacity=".06" rx="3.5" transform="matrix(1 0 0 -1 144 63)"/><rect width="15" height="15" x=".5" y="-.5" stroke="#CECEFB" stroke-opacity=".06" rx="3.5" transform="matrix(1 0 0 -1 96 63)"/><rect width="15" height="15" x=".5" y="-.5" stroke="#CECEFB" stroke-opacity=".06" rx="3.5" transform="matrix(1 0 0 -1 64 63)"/><rect width="15" height="15" x=".5" y="-.5" stroke="#CECEFB" stroke-opacity=".06" rx="3.5" transform="matrix(1 0 0 -1 48 47)"/><rect width="15" height="15" x=".5" y="-.5" stroke="#CECEFB" stroke-opacity=".06" rx="3.5" transform="matrix(1 0 0 -1 32 95)"/><rect width="16" height="16" fill="#CECEFB" fill-opacity=".04" rx="4" transform="matrix(1 0 0 -1 48 112)"/><rect width="15" height="15" x=".5" y="-.5" stroke="#CECEFB" stroke-opacity=".06" rx="3.5" transform="matrix(1 0 0 -1 48 111)"/><rect width="15" height="15" x=".5" y="-.5" stroke="#CECEFB" stroke-opacity=".06" rx="3.5" transform="matrix(1 0 0 -1 64 127)"/><rect width="15" height="15" x=".5" y="-.5" stroke="#CECEFB" stroke-opacity=".06" rx="3.5" transform="matrix(1 0 0 -1 0 95)"/><rect width="15" height="15" x=".5" y="-.5" stroke="#CECEFB" stroke-opacity=".06" rx="3.5" transform="matrix(1 0 0 -1 176 63)"/><rect width="16" height="16" fill="url(#e)" fill-opacity=".06" rx="4" transform="matrix(1 0 0 -1 208 64)"/><rect width="15" height="15" x=".5" y="-.5" stroke="url(#f)" stroke-opacity=".08" rx="3.5" transform="matrix(1 0 0 -1 208 63)"/><rect width="15" height="15" x=".5" y="-.5" stroke="#CECEFB" stroke-opacity=".06" rx="3.5" transform="matrix(1 0 0 -1 192 47)"/><rect width="16" height="16" fill="#CECEFB" fill-opacity=".04" rx="4" transform="matrix(1 0 0 -1 176 32)"/><rect width="15" height="15" x=".5" y="-.5" stroke="#CECEFB" stroke-opacity=".06" rx="3.5" transform="matrix(1 0 0 -1 176 31)"/><rect width="15" height="15" x=".5" y="-.5" stroke="#CECEFB" stroke-opacity=".06" rx="3.5" transform="matrix(1 0 0 -1 160 15)"/><rect width="15" height="15" x=".5" y="-.5" stroke="#CECEFB" stroke-opacity=".06" rx="3.5" transform="matrix(1 0 0 -1 240 63)"/><rect width="15" height="15" x=".5" y="-.5" stroke="#CECEFB" stroke-opacity=".06" rx="3.5" transform="matrix(1 0 0 -1 128 47)"/><rect width="15" height="15" x=".5" y="-.5" stroke="#CECEFB" stroke-opacity=".06" rx="3.5" transform="matrix(1 0 0 -1 112 31)"/><rect width="16" height="16" fill="url(#g)" fill-opacity=".06" rx="4" transform="matrix(1 0 0 -1 96 16)"/><rect width="15" height="15" x=".5" y="-.5" stroke="url(#h)" stroke-opacity=".08" rx="3.5" transform="matrix(1 0 0 -1 96 15)"/><defs><linearGradient id="a" x1="0" x2="16" y1="0" y2="16" gradientUnits="userSpaceOnUse"><stop offset=".005" stop-color="#8A43FF"/><stop offset="1" stop-color="#FFA2F6"/></linearGradient><linearGradient id="b" x1="0" x2="16" y1="0" y2="16" gradientUnits="userSpaceOnUse"><stop offset=".005" stop-color="#8A43FF"/><stop offset="1" stop-color="#FFA2F6"/></linearGradient><linearGradient id="c" x1="0" x2="16" y1="0" y2="16" gradientUnits="userSpaceOnUse"><stop offset=".005" stop-color="#8A43FF"/><stop offset="1" stop-color="#FFA2F6"/></linearGradient><linearGradient id="d" x1="0" x2="16" y1="0" y2="16" gradientUnits="userSpaceOnUse"><stop offset=".005" stop-color="#8A43FF"/><stop offset="1" stop-color="#FFA2F6"/></linearGradient><linearGradient id="e" x1="0" x2="16" y1="0" y2="16" gradientUnits="userSpaceOnUse"><stop offset=".005" stop-color="#8A43FF"/><stop offset="1" stop-color="#FFA2F6"/></linearGradient><linearGradient id="f" x1="0" x2="16" y1="0" y2="16" gradientUnits="userSpaceOnUse"><stop offset=".005" stop-color="#8A43FF"/><stop offset="1" stop-color="#FFA2F6"/></linearGradient><linearGradient id="g" x1="0" x2="16" y1="0" y2="16" gradientUnits="userSpaceOnUse"><stop offset=".005" stop-color="#8A43FF"/><stop offset="1" stop-color="#FFA2F6"/></linearGradient><linearGradient id="h" x1="0" x2="16" y1="0" y2="16" gradientUnits="userSpaceOnUse"><stop offset=".005" stop-color="#8A43FF"/><stop offset="1" stop-color="#FFA2F6"/></linearGradient></defs></svg>