<svg xmlns="http://www.w3.org/2000/svg" width="24" height="24" fill="none"><path fill="#BDBCC4" d="M8.764 17.52c.45-.2.955-.237 1.427-.107.588.16 1.196.241 1.809.24 3.502 0 6.111-2.51 6.111-5.882C18.111 8.4 15.502 5.89 12 5.89S5.889 8.4 5.889 11.771c0 1.734.684 3.263 1.884 4.336a2.14 2.14 0 0 1 .72 1.532l.271-.12zM12 4.36c4.304 0 7.639 3.153 7.639 7.41S16.304 19.18 12 19.18a8.322 8.322 0 0 1-2.211-.294.611.611 0 0 0-.408.03l-1.516.67a.61.61 0 0 1-.858-.54l-.042-1.36a.609.609 0 0 0-.205-.436C5.274 15.923 4.361 14 4.361 11.771c0-4.257 3.336-7.41 7.639-7.41zm-4.587 9.577 2.243-3.56a1.145 1.145 0 0 1 1.658-.305l1.784 1.337a.458.458 0 0 0 .553 0l2.41-1.83c.321-.244.741.14.526.483l-2.243 3.56a1.146 1.146 0 0 1-1.658.305l-1.784-1.337a.458.458 0 0 0-.553 0l-2.41 1.83c-.321.244-.742-.141-.526-.484v.001z"/></svg>