<svg xmlns="http://www.w3.org/2000/svg" width="168" height="64" fill="none"><path fill="#CECEFB" fill-opacity=".75" d="M91.04 39.318V22.682h3.014v16.636H91.04zM65.525 23.142l6.373 16.176h2.485l6.443-16.176H77.49L73.178 34.5l-4.27-11.357h-3.383z"/><path fill="#CECEFB" fill-opacity=".75" fill-rule="evenodd" d="M81.276 38.788c.905.507 1.917.76 3.037.76 1.12 0 2.125-.253 3.014-.76a5.839 5.839 0 0 0 2.14-2.093c.522-.89.782-1.88.782-2.969s-.26-2.063-.782-2.922a5.663 5.663 0 0 0-2.14-2.07c-.89-.522-1.902-.783-3.037-.783-1.104 0-2.109.261-3.014.782a5.663 5.663 0 0 0-2.14 2.071c-.521.86-.782 1.833-.782 2.922 0 1.09.26 2.079.782 2.969a6.081 6.081 0 0 0 2.14 2.093zm4.51-2.415c-.43.245-.928.368-1.496.368a2.916 2.916 0 0 1-1.472-.368 2.797 2.797 0 0 1-1.013-1.059 3.273 3.273 0 0 1-.368-1.565c0-.582.123-1.096.368-1.541a2.63 2.63 0 0 1 1.013-1.036c.43-.26.92-.39 1.472-.39.568 0 1.066.13 1.496.39.43.246.767.591 1.012 1.036.246.445.368.959.368 1.541 0 .583-.122 1.105-.368 1.565-.23.445-.567.798-1.012 1.059z" clip-rule="evenodd"/><path fill="#CECEFB" fill-opacity=".75" d="M97.69 38.926c.768.415 1.642.622 2.624.622.981 0 1.848-.2 2.6-.599a4.362 4.362 0 0 0 1.771-1.725c.43-.736.645-1.595.645-2.577v-6.443h-3.014v6.374c0 .69-.177 1.227-.53 1.61-.352.384-.843.576-1.472.576-.414 0-.775-.085-1.082-.254a1.606 1.606 0 0 1-.69-.736c-.153-.337-.23-.736-.23-1.196v-6.374h-3.037v6.443c0 .966.215 1.818.644 2.554a4.561 4.561 0 0 0 1.772 1.725zm8.89.392V28.204h3.014v.965c.269-.264.576-.485.92-.666.644-.352 1.373-.529 2.186-.529.767 0 1.465.177 2.094.53.527.282.962.667 1.306 1.155a4.16 4.16 0 0 1 1.363-1.133c.675-.368 1.426-.552 2.255-.552.828 0 1.572.177 2.232.53a3.806 3.806 0 0 1 1.564 1.472c.384.644.575 1.411.575 2.3v7.042h-3.014V32.76c0-.644-.207-1.143-.621-1.495-.399-.369-.897-.553-1.496-.553-.383 0-.744.085-1.081.253a1.74 1.74 0 0 0-.759.69c-.184.307-.276.676-.276 1.105v6.558h-3.015V32.76c0-.644-.207-1.143-.621-1.495-.399-.369-.897-.553-1.495-.553-.399 0-.76.085-1.082.253a1.74 1.74 0 0 0-.759.69c-.184.307-.276.676-.276 1.105v6.558h-3.014z"/><path fill="#CECEFB" fill-opacity=".75" fill-rule="evenodd" d="M127.591 38.811c.905.491 1.941.737 3.106.737a6.41 6.41 0 0 0 2.508-.483 5.125 5.125 0 0 0 1.979-1.427l-1.772-1.772a3.349 3.349 0 0 1-1.196.875 4.12 4.12 0 0 1-1.542.276c-.629 0-1.181-.13-1.656-.391a2.848 2.848 0 0 1-1.105-1.15 3.453 3.453 0 0 1-.235-.648l8.127-.02c.062-.26.1-.491.115-.69.031-.215.046-.422.046-.622 0-1.058-.237-2.001-.713-2.83a4.992 4.992 0 0 0-1.933-1.979c-.813-.49-1.756-.736-2.83-.736-1.089 0-2.078.261-2.968.782a5.714 5.714 0 0 0-2.117 2.071c-.506.86-.759 1.841-.759 2.945 0 1.12.261 2.117.782 2.992a5.84 5.84 0 0 0 2.163 2.07zm.089-6.239a3.17 3.17 0 0 1 .21-.571 2.644 2.644 0 0 1 1.036-1.128c.444-.276.966-.414 1.564-.414.568 0 1.043.123 1.427.368.399.23.698.568.897 1.013.104.214.186.453.246.717l-5.38.015zM47 46c7.732 0 14-6.268 14-14s-6.268-14-14-14-14 6.268-14 14 6.268 14 14 14zm5.798-22.57a.74.74 0 0 1 .262.566V36.43a2.96 2.96 0 1 1-1.48-2.565v-5.999L44.177 29.1v8.81a2.96 2.96 0 1 1-1.48-2.564v-9.87a.74.74 0 0 1 .619-.73l8.882-1.48a.74.74 0 0 1 .6.165z" clip-rule="evenodd"/></svg>