<svg xmlns="http://www.w3.org/2000/svg" width="24" height="24" fill="none"><path fill="url(#a)" d="M12 3c-4.968 0-9 4.032-9 9s4.032 9 9 9c4.959 0 9-4.032 9-9s-4.041-9-9-9zm5.945 4.149a7.652 7.652 0 0 1 1.736 4.783c-.252-.049-2.79-.566-5.348-.244-.059-.127-.108-.264-.166-.4-.16-.376-.328-.747-.507-1.113 2.83-1.152 4.119-2.812 4.285-3.026zM12 4.327a7.67 7.67 0 0 1 5.096 1.934c-.137.194-1.299 1.747-4.032 2.772a41.534 41.534 0 0 0-2.87-4.5A7.818 7.818 0 0 1 12 4.327zm-3.27.723a48.512 48.512 0 0 1 2.85 4.442c-3.592.956-6.765.936-7.106.936A7.723 7.723 0 0 1 8.73 5.05zm-4.422 6.96v-.234c.333.009 4.06.059 7.897-1.094.225.43.43.869.625 1.308-.098.03-.205.059-.303.088-3.963 1.278-6.072 4.773-6.247 5.066a7.67 7.67 0 0 1-1.971-5.134h-.001zM12 19.692a7.634 7.634 0 0 1-4.715-1.62c.137-.283 1.7-3.29 6.033-4.803.02-.009.03-.009.048-.02a31.78 31.78 0 0 1 1.64 5.828 7.56 7.56 0 0 1-3.006.615zm4.285-1.318c-.078-.468-.488-2.714-1.494-5.476 2.412-.38 4.52.244 4.783.332a7.62 7.62 0 0 1-3.29 5.144z"/><defs><linearGradient id="a" x1="12" x2="12" y1="3" y2="21" gradientUnits="userSpaceOnUse"><stop stop-color="#fff" stop-opacity=".7"/><stop offset="1" stop-color="#fff"/></linearGradient></defs></svg>