<svg xmlns="http://www.w3.org/2000/svg" width="320" height="208" fill="none"><rect width="15" height="15" x="160.5" y="97.5" stroke="#CECEFB" stroke-opacity=".08" rx="3.5"/><rect width="16" height="16" x="176" y="81" fill="url(#a)" fill-opacity=".08" rx="4"/><rect width="15" height="15" x="176.5" y="81.5" stroke="url(#b)" stroke-opacity=".12" rx="3.5"/><rect width="15" height="15" x="208.5" y="112.5" stroke="#CECEFB" stroke-opacity=".08" rx="3.5"/><rect width="15" height="15" x="224.5" y="96.5" stroke="#CECEFB" stroke-opacity=".08" rx="3.5"/><rect width="16" height="16" x="256" y="96" fill="#CECEFB" fill-opacity=".04" rx="4"/><rect width="15" height="15" x="256.5" y="96.5" stroke="#CECEFB" stroke-opacity=".08" rx="3.5"/><rect width="15" height="15" x="240.5" y="80.5" stroke="#CECEFB" stroke-opacity=".08" rx="3.5"/><rect width="16" height="16" x="224" y="64" fill="url(#c)" fill-opacity=".08" rx="4"/><rect width="15" height="15" x="224.5" y="64.5" stroke="url(#d)" stroke-opacity=".12" rx="3.5"/><rect width="15" height="15" x="208.5" y="48.5" stroke="#CECEFB" stroke-opacity=".08" rx="3.5"/><rect width="15" height="15" x="192.5" y="32.5" stroke="#CECEFB" stroke-opacity=".08" rx="3.5"/><rect width="15" height="15" x="128.5" y="32.5" stroke="#CECEFB" stroke-opacity=".08" rx="3.5"/><rect width="15" height="15" x="144.5" y="16.5" stroke="#CECEFB" stroke-opacity=".08" rx="3.5"/><rect width="15" height="15" x="80.5" y="48.5" stroke="#CECEFB" stroke-opacity=".08" rx="3.5"/><rect width="16" height="16" x="96" fill="url(#e)" fill-opacity=".08" rx="4"/><rect width="15" height="15" x="96.5" y=".5" stroke="url(#f)" stroke-opacity=".12" rx="3.5"/><rect width="15" height="15" x="64.5" y="32.5" stroke="#CECEFB" stroke-opacity=".08" rx="3.5"/><rect width="15" height="15" x="48.5" y="16.5" stroke="#CECEFB" stroke-opacity=".08" rx="3.5"/><rect width="15" height="15" x="32.5" y="32.5" stroke="#CECEFB" stroke-opacity=".08" rx="3.5"/><rect width="15" height="15" x="16.5" y="48.5" stroke="#CECEFB" stroke-opacity=".08" rx="3.5"/><rect width="15" height="15" x=".5" y="64.5" stroke="#CECEFB" stroke-opacity=".08" rx="3.5"/><rect width="15" height="15" x="256.5" y="64.5" stroke="#CECEFB" stroke-opacity=".08" rx="3.5"/><rect width="15" height="15" x="272.5" y="48.5" stroke="#CECEFB" stroke-opacity=".08" rx="3.5"/><rect width="15" height="15" x="224.5" y="128.5" stroke="#CECEFB" stroke-opacity=".08" rx="3.5"/><rect width="15" height="15" x="160.5" y="144.5" stroke="#CECEFB" stroke-opacity=".08" rx="3.5"/><rect width="15" height="15" x="128.5" y="128.5" stroke="#CECEFB" stroke-opacity=".08" rx="3.5"/><rect width="15" height="15" x="48.5" y="112.5" stroke="#CECEFB" stroke-opacity=".08" rx="3.5"/><rect width="15" height="15" x="96.5" y="128.5" stroke="#CECEFB" stroke-opacity=".08" rx="3.5"/><rect width="15" height="15" x="80.5" y="112.5" stroke="#CECEFB" stroke-opacity=".08" rx="3.5"/><rect width="15" height="15" x="96.5" y="80.5" stroke="#CECEFB" stroke-opacity=".08" rx="3.5"/><rect width="16" height="16" x="112" y="96" fill="url(#g)" fill-opacity=".08" rx="4"/><rect width="15" height="15" x="112.5" y="96.5" stroke="url(#h)" stroke-opacity=".12" rx="3.5"/><rect width="15" height="15" x="128.5" y="80.5" stroke="#CECEFB" stroke-opacity=".08" rx="3.5"/><rect width="15" height="15" x="64.5" y="64.5" stroke="#CECEFB" stroke-opacity=".08" rx="3.5"/><rect width="15" height="15" x="240.5" y="144.5" stroke="#CECEFB" stroke-opacity=".08" rx="3.5"/><rect width="16" height="16" x="272" y="144" fill="#CECEFB" fill-opacity=".04" rx="4"/><rect width="15" height="15" x="272.5" y="144.5" stroke="#CECEFB" stroke-opacity=".08" rx="3.5"/><rect width="15" height="15" x="256.5" y="160.5" stroke="#CECEFB" stroke-opacity=".08" rx="3.5"/><rect width="16" height="16" x="240" y="176" fill="url(#i)" fill-opacity=".08" rx="4"/><rect width="15" height="15" x="240.5" y="176.5" stroke="url(#j)" stroke-opacity=".12" rx="3.5"/><rect width="15" height="15" x="224.5" y="192.5" stroke="#CECEFB" stroke-opacity=".08" rx="3.5"/><rect width="15" height="15" x="304.5" y="144.5" stroke="#CECEFB" stroke-opacity=".08" rx="3.5"/><rect width="15" height="15" x="192.5" y="160.5" stroke="#CECEFB" stroke-opacity=".08" rx="3.5"/><rect width="15" height="15" x="176.5" y="176.5" stroke="#CECEFB" stroke-opacity=".08" rx="3.5"/><rect width="16" height="16" x="160" y="192" fill="#CECEFB" fill-opacity=".04" rx="4"/><rect width="15" height="15" x="160.5" y="192.5" stroke="#CECEFB" stroke-opacity=".08" rx="3.5"/><defs><linearGradient id="a" x1="176" x2="192" y1="81" y2="97" gradientUnits="userSpaceOnUse"><stop offset=".005" stop-color="#8A43FF"/><stop offset="1" stop-color="#FFA2F6"/></linearGradient><linearGradient id="b" x1="176" x2="192" y1="81" y2="97" gradientUnits="userSpaceOnUse"><stop offset=".005" stop-color="#8A43FF"/><stop offset="1" stop-color="#FFA2F6"/></linearGradient><linearGradient id="c" x1="224" x2="240" y1="64" y2="80" gradientUnits="userSpaceOnUse"><stop offset=".005" stop-color="#8A43FF"/><stop offset="1" stop-color="#FFA2F6"/></linearGradient><linearGradient id="d" x1="224" x2="240" y1="64" y2="80" gradientUnits="userSpaceOnUse"><stop offset=".005" stop-color="#8A43FF"/><stop offset="1" stop-color="#FFA2F6"/></linearGradient><linearGradient id="e" x1="96" x2="112" y1="0" y2="16" gradientUnits="userSpaceOnUse"><stop offset=".005" stop-color="#8A43FF"/><stop offset="1" stop-color="#FFA2F6"/></linearGradient><linearGradient id="f" x1="96" x2="112" y1="0" y2="16" gradientUnits="userSpaceOnUse"><stop offset=".005" stop-color="#8A43FF"/><stop offset="1" stop-color="#FFA2F6"/></linearGradient><linearGradient id="g" x1="112" x2="128" y1="96" y2="112" gradientUnits="userSpaceOnUse"><stop offset=".005" stop-color="#8A43FF"/><stop offset="1" stop-color="#FFA2F6"/></linearGradient><linearGradient id="h" x1="112" x2="128" y1="96" y2="112" gradientUnits="userSpaceOnUse"><stop offset=".005" stop-color="#8A43FF"/><stop offset="1" stop-color="#FFA2F6"/></linearGradient><linearGradient id="i" x1="240" x2="256" y1="176" y2="192" gradientUnits="userSpaceOnUse"><stop offset=".005" stop-color="#8A43FF"/><stop offset="1" stop-color="#FFA2F6"/></linearGradient><linearGradient id="j" x1="240" x2="256" y1="176" y2="192" gradientUnits="userSpaceOnUse"><stop offset=".005" stop-color="#8A43FF"/><stop offset="1" stop-color="#FFA2F6"/></linearGradient></defs></svg>