<svg xmlns="http://www.w3.org/2000/svg" width="168" height="64" fill="none"><path fill="#CECEFB" fill-opacity=".75" d="M52.217 17.345a2.58 2.58 0 0 1 2.578 0l10.56 6.098-7.302 4.276a6.223 6.223 0 0 0-4.423-1.838c-1.797 0-3.417.76-4.556 1.976l-7.479-4.38 10.622-6.132zM47.65 30.327l-7.48-4.38V38.19l7.452-4.364a6.248 6.248 0 0 1-.235-1.702c0-.625.092-1.228.263-1.797zm1.357 5.992-7.294 4.27 10.504 6.066c.798.46 1.78.46 2.578 0l10.443-6.03-7.115-4.166a6.224 6.224 0 0 1-4.493 1.908 6.227 6.227 0 0 1-4.623-2.048zm10.576-2.309 7.258 4.25V25.877l-7.289 4.268c.208.622.32 1.288.32 1.98a6.24 6.24 0 0 1-.29 1.886z"/><path fill="#CECEFB" fill-opacity=".75" fill-rule="evenodd" d="M75.481 39.15c1.047.638 2.303.957 3.77.957 1.468 0 2.725-.319 3.771-.957 1.053-.646 1.858-1.543 2.415-2.69.564-1.149.846-2.48.846-3.995 0-1.515-.282-2.847-.846-3.995-.557-1.148-1.362-2.041-2.415-2.68-1.046-.645-2.303-.968-3.77-.968-1.468 0-2.724.323-3.77.968-1.047.639-1.852 1.532-2.416 2.68-.557 1.148-.835 2.48-.835 3.995 0 1.515.278 2.846.835 3.994.564 1.148 1.37 2.045 2.415 2.69zm6.227-2.008c-.653.442-1.471.659-2.456.652-.985-.013-1.807-.24-2.466-.682-.653-.442-1.142-1.057-1.468-1.845-.326-.795-.489-1.729-.489-2.802 0-1.074.163-2.011.49-2.813.332-.801.825-1.423 1.477-1.864.652-.442 1.47-.66 2.456-.653.985.014 1.803.242 2.456.683.659.442 1.151 1.06 1.477 1.855.333.788.5 1.719.5 2.792 0 1.073-.167 2.01-.5 2.812-.326.802-.819 1.423-1.478 1.865z" clip-rule="evenodd"/><path fill="#CECEFB" fill-opacity=".75" d="M87.496 39.286c0 .285.23.516.516.516h1.434a.516.516 0 0 0 .516-.516v-5.079c0-.42.05-.812.153-1.172a2.97 2.97 0 0 1 .469-.978c.217-.285.495-.52.835-.703a2.59 2.59 0 0 1 1.141-.357c.158-.012.31-.016.454-.01.343.011.678-.241.678-.585v-1.169a.472.472 0 0 0-.434-.485 4.306 4.306 0 0 0-.575.008c-.347.02-.686.085-1.02.193a3.41 3.41 0 0 0-.896.428c-.32.197-.594.449-.825.754a3.746 3.746 0 0 0-.276.423v-1.242a.516.516 0 0 0-.515-.516h-1.14a.516.516 0 0 0-.515.516v9.974z"/><path fill="#CECEFB" fill-opacity=".75" fill-rule="evenodd" d="M100.11 40.107c-1.074 0-1.974-.254-2.7-.764a4.524 4.524 0 0 1-.439-.349v.292c0 .285-.23.516-.516.516h-1.139a.516.516 0 0 1-.516-.516V25.643c0-.284.231-.515.516-.515h1.445c.285 0 .516.23.516.515v3.687c.033-.026.067-.05.102-.075.713-.51 1.593-.764 2.639-.764 1.039 0 1.939.255 2.7.764.768.503 1.362 1.192 1.783 2.069.422.87.632 1.86.632 2.975 0 1.1-.207 2.089-.621 2.965-.415.877-.999 1.57-1.753 2.08-.754.509-1.637.763-2.649.763zm-2.864-7.693c-.183.537-.275 1.165-.275 1.885 0 .713.092 1.342.275 1.885.19.544.486.968.887 1.274.407.299.94.448 1.6.448.638 0 1.165-.16 1.579-.479.414-.319.72-.75.917-1.294.204-.55.306-1.161.306-1.834a5.13 5.13 0 0 0-.306-1.814c-.204-.55-.52-.985-.948-1.304-.428-.326-.971-.49-1.63-.49-.625 0-1.135.154-1.528.46-.395.298-.687.72-.877 1.263z" clip-rule="evenodd"/><path fill="#CECEFB" fill-opacity=".75" d="M106.768 39.286c0 .285.231.516.516.516h1.424a.516.516 0 0 0 .516-.516v-9.974a.516.516 0 0 0-.516-.516h-1.424a.516.516 0 0 0-.516.516v9.974zm11.143.088a.499.499 0 0 1-.422.498 9.862 9.862 0 0 1-1.718.103c-.693-.014-1.314-.14-1.864-.377a2.586 2.586 0 0 1-1.254-1.152 3.278 3.278 0 0 1-.397-1.457 60.17 60.17 0 0 1-.021-1.681v-4.586h-1.481a.516.516 0 0 1-.516-.515v-.895c0-.285.231-.516.516-.516h1.481v-2.541c0-.285.231-.516.516-.516h1.414c.285 0 .516.231.516.516v2.541h2.715c.284 0 .515.231.515.516v.895a.516.516 0 0 1-.515.515h-2.715v4.443c0 .442.003.829.01 1.162.014.333.085.605.214.815.245.408.635.635 1.172.683.377.033.79.03 1.241-.01a.539.539 0 0 1 .593.526v1.033zm2.869-.021c.802.503 1.77.754 2.904.754 1.23 0 2.269-.298 3.119-.896.711-.507 1.244-1.195 1.598-2.065a.481.481 0 0 0-.357-.645l-1.512-.338c-.258-.057-.512.091-.628.328a2.455 2.455 0 0 1-.681.865c-.373.299-.886.448-1.539.448-.923 0-1.62-.322-2.088-.968-.469-.645-.704-1.49-.704-2.537 0-.672.099-1.274.296-1.804.197-.53.503-.944.917-1.243.414-.305.941-.458 1.579-.458.564 0 1.067.166 1.509.499.32.237.575.544.763.92.123.246.393.399.659.327l1.486-.402a.478.478 0 0 0 .342-.614 4.236 4.236 0 0 0-1.559-2.086c-.863-.631-1.919-.947-3.169-.947-1.114 0-2.075.251-2.884.754a5.004 5.004 0 0 0-1.875 2.058c-.435.87-.655 1.868-.662 2.996.007 1.107.221 2.1.642 2.976a5.024 5.024 0 0 0 1.844 2.078zM106.709 25.83l.692-.69a.774.774 0 0 1 1.094 0l.691.69a.773.773 0 0 1 0 1.095l-.691.691a.774.774 0 0 1-1.094 0l-.692-.691a.773.773 0 0 1 0-1.094z"/></svg>