<svg xmlns="http://www.w3.org/2000/svg" width="88" height="88" fill="none"><g clip-path="url(#a)"><path stroke="#A660FF" stroke-opacity=".12" d="M10 26V16a6 6 0 0 1 6-6h10m52 52v10a6 6 0 0 1-6 6H62m0-68h10a6 6 0 0 1 6 6v10M26 78H16a6 6 0 0 1-6-6V62"/><g filter="url(#b)" shape-rendering="crispEdges"><path fill="url(#c)" d="m51 40 7 4 7-4v-8l-7-4-7 4v8z"/><path fill="url(#d)" d="m51 56 7 4 7-4v-8l-7-4-7 4v8z"/><path fill="url(#e)" d="m37 64 7 4 7-4v-8l-7-4-7 4v8z"/><path fill="url(#f)" d="m23 56 7 4 7-4v-8l-7-4-7 4v8z"/><path fill="url(#g)" d="m23 40 7 4 7-4v-8l-7-4-7 4v8z"/><path fill="url(#h)" d="m37 32 7 4 7-4v-8l-7-4-7 4v8z"/></g></g><defs><linearGradient id="c" x1="44" x2="44" y1="20" y2="68" gradientUnits="userSpaceOnUse"><stop stop-color="#fff" stop-opacity=".8"/><stop offset="1" stop-color="#fff"/></linearGradient><linearGradient id="d" x1="44" x2="44" y1="20" y2="68" gradientUnits="userSpaceOnUse"><stop stop-color="#fff" stop-opacity=".8"/><stop offset="1" stop-color="#fff"/></linearGradient><linearGradient id="e" x1="44" x2="44" y1="20" y2="68" gradientUnits="userSpaceOnUse"><stop stop-color="#fff" stop-opacity=".8"/><stop offset="1" stop-color="#fff"/></linearGradient><linearGradient id="f" x1="44" x2="44" y1="20" y2="68" gradientUnits="userSpaceOnUse"><stop stop-color="#fff" stop-opacity=".8"/><stop offset="1" stop-color="#fff"/></linearGradient><linearGradient id="g" x1="44" x2="44" y1="20" y2="68" gradientUnits="userSpaceOnUse"><stop stop-color="#fff" stop-opacity=".8"/><stop offset="1" stop-color="#fff"/></linearGradient><linearGradient id="h" x1="44" x2="44" y1="20" y2="68" gradientUnits="userSpaceOnUse"><stop stop-color="#fff" stop-opacity=".8"/><stop offset="1" stop-color="#fff"/></linearGradient><clipPath id="a"><path fill="#fff" d="M0 88h88V0H0z"/></clipPath><filter id="b" width="58" height="80" x="15" y="16" color-interpolation-filters="sRGB" filterUnits="userSpaceOnUse"><feFlood flood-opacity="0" result="BackgroundImageFix"/><feColorMatrix in="SourceAlpha" result="hardAlpha" values="0 0 0 0 0 0 0 0 0 0 0 0 0 0 0 0 0 0 127 0"/><feOffset/><feComposite in2="hardAlpha" operator="out"/><feColorMatrix values="0 0 0 0 0.521569 0 0 0 0 0.129412 0 0 0 0 0.909804 0 0 0 0.52 0"/><feBlend in2="BackgroundImageFix" result="effect1_dropShadow_732_11578"/><feColorMatrix in="SourceAlpha" result="hardAlpha" values="0 0 0 0 0 0 0 0 0 0 0 0 0 0 0 0 0 0 127 0"/><feOffset dy="1"/><feGaussianBlur stdDeviation="1.5"/><feComposite in2="hardAlpha" operator="out"/><feColorMatrix values="0 0 0 0 0.706902 0 0 0 0 0.129412 0 0 0 0 0.909804 0 0 0 0.51 0"/><feBlend in2="effect1_dropShadow_732_11578" result="effect2_dropShadow_732_11578"/><feColorMatrix in="SourceAlpha" result="hardAlpha" values="0 0 0 0 0 0 0 0 0 0 0 0 0 0 0 0 0 0 127 0"/><feOffset dy="5"/><feGaussianBlur stdDeviation="2.5"/><feComposite in2="hardAlpha" operator="out"/><feColorMatrix values="0 0 0 0 0.660078 0 0 0 0 0.129412 0 0 0 0 0.909804 0 0 0 0.44 0"/><feBlend in2="effect2_dropShadow_732_11578" result="effect3_dropShadow_732_11578"/><feColorMatrix in="SourceAlpha" result="hardAlpha" values="0 0 0 0 0 0 0 0 0 0 0 0 0 0 0 0 0 0 127 0"/><feOffset dy="11"/><feGaussianBlur stdDeviation="3.5"/><feComposite in2="hardAlpha" operator="out"/><feColorMatrix values="0 0 0 0 0.566431 0 0 0 0 0.129412 0 0 0 0 0.909804 0 0 0 0.26 0"/><feBlend in2="effect3_dropShadow_732_11578" result="effect4_dropShadow_732_11578"/><feColorMatrix in="SourceAlpha" result="hardAlpha" values="0 0 0 0 0 0 0 0 0 0 0 0 0 0 0 0 0 0 127 0"/><feOffset dy="20"/><feGaussianBlur stdDeviation="4"/><feComposite in2="hardAlpha" operator="out"/><feColorMatrix values="0 0 0 0 0.706902 0 0 0 0 0.129412 0 0 0 0 0.909804 0 0 0 0.08 0"/><feBlend in2="effect4_dropShadow_732_11578" result="effect5_dropShadow_732_11578"/><feBlend in="SourceGraphic" in2="effect5_dropShadow_732_11578" result="shape"/><feColorMatrix in="SourceAlpha" result="hardAlpha" values="0 0 0 0 0 0 0 0 0 0 0 0 0 0 0 0 0 0 127 0"/><feOffset dy="-4"/><feGaussianBlur stdDeviation="6"/><feComposite in2="hardAlpha" k2="-1" k3="1" operator="arithmetic"/><feColorMatrix values="0 0 0 0 0.521569 0 0 0 0 0.129412 0 0 0 0 0.909804 0 0 0 0.25 0"/><feBlend in2="shape" result="effect6_innerShadow_732_11578"/><feColorMatrix in="SourceAlpha" result="hardAlpha" values="0 0 0 0 0 0 0 0 0 0 0 0 0 0 0 0 0 0 127 0"/><feOffset dy="-1"/><feGaussianBlur stdDeviation=".5"/><feComposite in2="hardAlpha" k2="-1" k3="1" operator="arithmetic"/><feColorMatrix values="0 0 0 0 0.521569 0 0 0 0 0.129412 0 0 0 0 0.909804 0 0 0 0.4 0"/><feBlend in2="effect6_innerShadow_732_11578" result="effect7_innerShadow_732_11578"/></filter></defs></svg>