<svg xmlns="http://www.w3.org/2000/svg" width="24" height="24" fill="none"><path fill="#BDBCC4" d="M14.52 7.073a2.215 2.215 0 0 0-2.214 2.175l-.022 1.203a.457.457 0 0 1-.52.445l-1.192-.162C9.003 10.52 7.5 9.797 6.058 8.596c-.457 2.528.435 4.28 2.584 5.631l1.334.839a.46.46 0 0 1 .026.759l-1.216.888c.724.045 1.41.013 1.98-.1 3.604-.72 6-3.431 6-7.905 0-.365-.772-1.635-2.245-1.635zm-3.742 2.146a3.743 3.743 0 0 1 6.405-2.563c.543-.003 1.005.134 2.039-.492-.256 1.252-.382 1.796-.928 2.544 0 5.838-3.588 8.676-7.228 9.403-2.497.498-6.127-.32-7.167-1.406.53-.042 2.684-.273 3.93-1.184-1.054-.695-5.247-3.162-2.492-9.796 1.294 1.51 2.605 2.539 3.934 3.084.885.363 1.102.355 1.507.411z"/></svg>